<svg xmlns="http://www.w3.org/2000/svg" viewBox="0 0 100 100">
  <defs>
    <linearGradient id="btcGradient" x1="0%" y1="0%" x2="100%" y2="100%">
      <stop offset="0%" style="stop-color:#f7931a"/>
      <stop offset="100%" style="stop-color:#ff8c00"/>
    </linearGradient>
    <filter id="shadow">
      <feDropShadow dx="2" dy="2" stdDeviation="2" flood-opacity="0.3"/>
    </filter>
  </defs>
  
  <!-- Outer circle -->
  <circle cx="50" cy="50" r="48" fill="url(#btcGradient)" stroke="#d4660a" stroke-width="2" filter="url(#shadow)"/>
  
  <!-- Inner Bitcoin B symbol -->
  <g transform="translate(50,50)">
    <!-- B shape -->
    <path d="M-12,-20 L-12,20 L2,20 C8,20 12,16 12,10 C12,6 10,2 6,2 C10,2 12,-2 12,-8 C12,-14 8,-20 2,-20 Z M-6,-14 L2,-14 C4,-14 6,-12 6,-8 C6,-4 4,-2 2,-2 L-6,-2 Z M-6,4 L2,4 C4,4 6,6 6,10 C6,14 4,16 2,16 L-6,16 Z" 
          fill="white" 
          stroke="#d4660a" 
          stroke-width="1"/>
    
    <!-- Vertical lines through B -->
    <line x1="2" y1="-24" x2="2" y2="-16" stroke="white" stroke-width="2"/>
    <line x1="2" y1="16" x2="2" y2="24" stroke="white" stroke-width="2"/>
    <line x1="-2" y1="-24" x2="-2" y2="-16" stroke="white" stroke-width="2"/>
    <line x1="-2" y1="16" x2="-2" y2="24" stroke="white" stroke-width="2"/>
  </g>
</svg>