<svg xmlns="http://www.w3.org/2000/svg" viewBox="0 0 32 32">
  <defs>
    <linearGradient id="solGrad1" x1="0%" y1="0%" x2="100%" y2="0%">
      <stop offset="0%" style="stop-color:#00D4FF"/>
      <stop offset="100%" style="stop-color:#9945FF"/>
    </linearGradient>
    <linearGradient id="solGrad2" x1="0%" y1="0%" x2="100%" y2="0%">
      <stop offset="0%" style="stop-color:#9945FF"/>
      <stop offset="100%" style="stop-color:#14F195"/>
    </linearGradient>
  </defs>
  <circle cx="16" cy="16" r="16" fill="#1A1A1A"/>
  <path d="M8 12h16c.6 0 1-.4 1-1s-.4-1-1-1H8c-.6 0-1 .4-1 1s.4 1 1 1z" fill="url(#solGrad1)"/>
  <path d="M24 15H8c-.6 0-1 .4-1 1s.4 1 1 1h16c.6 0 1-.4 1-1s-.4-1-1-1z" fill="url(#solGrad2)"/>
  <path d="M8 20h16c.6 0 1-.4 1-1s-.4-1-1-1H8c-.6 0-1 .4-1 1s.4 1 1 1z" fill="url(#solGrad1)"/>
</svg>